<svg width="1920" height="321" viewBox="0 0 1920 321" fill="none" xmlns="http://www.w3.org/2000/svg">
<g clip-path="url(#clip0)">
<path d="M-1.13748 160.998L62.6835 172.042C126.507 182.686 254.145 205.375 381.789 227.063C509.433 248.751 637.072 271.44 764.946 250.429C892.819 229.818 1020.92 166.508 1148.82 140.497C1276.72 114.886 1404.42 125.575 1532.15 131.963C1659.88 137.952 1787.64 138.641 1851.52 138.985L1915.39 139.33L1914.36 331.327L1850.48 330.982C1786.6 330.638 1658.84 329.949 1531.09 329.26C1403.33 328.572 1275.57 327.883 1147.82 327.194C1020.06 326.505 892.301 325.817 764.544 325.128C636.786 324.439 509.029 323.75 381.272 323.062C253.515 322.373 125.757 321.684 61.8786 321.34L-2.00006 320.995L-1.13748 160.998Z" fill="#1E40AF" fill-opacity="0.27"/>
</g>
<g clip-path="url(#clip1)">
<path d="M1920 1.14441e-05L1813.36 26.7558C1706.72 53.1115 1493.43 107.223 1280.1 112.334C1066.78 117.446 853.403 75.5573 640.084 91.3687C426.766 107.78 213.501 181.892 106.87 219.647L0.237785 257.003L0.297226 321.003L106.964 320.947C213.631 320.892 426.964 320.78 640.297 320.669C853.63 320.557 1066.96 320.446 1280.3 320.334C1493.63 320.223 1706.96 320.111 1813.63 320.056L1920.3 320L1920 1.14441e-05Z" fill="#1E40AF" fill-opacity="0.47"/>
</g>
<defs>
<clipPath id="clip0">
<rect width="1916.39" height="320" fill="white" transform="translate(-0.274902 0.999985) rotate(0.308888)"/>
</clipPath>
<clipPath id="clip1">
<rect width="1920" height="320" fill="white" transform="matrix(-1 0.000522433 -0.000928769 -1 1920.3 320)"/>
</clipPath>
</defs>
</svg>
